<svg width="40" height="48" fill="none" xmlns="http://www.w3.org/2000/svg">
  <path d="M39.162 37.407a26.18 26.18 0 01-2.553 4.64c-1.343 1.934-2.442 3.273-3.29 4.017-1.313 1.22-2.72 1.846-4.226 1.882-1.082 0-2.386-.312-3.905-.943-1.523-.628-2.923-.939-4.203-.939-1.343 0-2.782.311-4.322.94-1.543.63-2.786.96-3.736.992-1.444.062-2.884-.58-4.322-1.932-.917-.809-2.065-2.195-3.44-4.16-1.475-2.098-2.688-4.53-3.638-7.303C.51 31.605 0 28.705 0 25.896c0-3.216.688-5.99 2.065-8.316 1.083-1.867 2.523-3.34 4.325-4.422a11.543 11.543 0 015.847-1.668c1.148 0 2.653.36 4.523 1.064 1.865.708 3.062 1.067 3.587 1.067.393 0 1.723-.42 3.978-1.256 2.133-.776 3.932-1.097 5.407-.97 3.995.325 6.997 1.917 8.993 4.785-3.573 2.189-5.34 5.254-5.306 9.186.033 3.063 1.132 5.611 3.292 7.635A10.81 10.81 0 0040 35.18a36.201 36.201 0 01-.838 2.226zM29.999.96c0 2.4-.868 4.642-2.598 6.717-2.087 2.466-4.611 3.891-7.349 3.666a7.55 7.55 0 01-.055-.91c0-2.304.993-4.77 2.756-6.787.88-1.02 1.999-1.87 3.356-2.547C27.463.432 28.744.063 29.949 0c.035.32.05.642.05.96z" fill="#000"/>
</svg>
