<svg fill="none" height="469" viewBox="0 0 476 469" width="476" xmlns="http://www.w3.org/2000/svg">
    <linearGradient id="a" gradientUnits="userSpaceOnUse" x1="89.5" x2="357.5" y1="74" y2="406">
        <stop offset="0" stop-color="#19a6d2"/>
        <stop offset="1" stop-color="#6448e2"/>
    </linearGradient>
    <path d="m0 0h476v469h-476z" fill="none"/>
    <path d="m125 100h231v288h-231z" fill="#fff"/>
    <path clip-rule="evenodd"
          d="m218.7.424664c-102.206 6.325996-189.158 80.050036-212.82 180.444336-4.198 17.809-5.88 33.117-5.88 53.5 0 28.354 3.299 48.7 12.167 75.029 12.059 35.805 29.18 63.255 56.467 90.532 15.745 15.741 28.822 25.98 46.654 36.532 36.582 21.647 75.349 32.118 118.912 32.118 64.068 0 120.189-23.268 165.566-68.645s68.645-101.498 68.645-165.566c0-52.207-15.684-99.418-46.922-141.2373-15.685-20.998-43.649-46.255-66.014-59.624-20.178-12.062-48.101-23.283-69.775-28.04104-20.568-4.513996-45.368-6.380996-67-5.041996zm37 130.455336c13.983 2.949 26.502 11.77 31.711 22.343 1.899 3.854 2.289 6.266 2.289 14.146 0 8.381-.33 10.172-2.8 15.203-3.762 7.661-11.649 14.797-16.354 14.797-4.595 0-8.358-3.714-8.313-8.205.018-1.812.903-5.77 1.967-8.795 2.845-8.087 2.568-13.543-1.054-20.792-3.829-7.663-8.152-10.637-15.463-10.637-21.875 0-49.044 37.862-56.898 79.289-2.08 10.974-2.078 31.015.005 40.443 3.854 17.441 15.238 33.536 28.248 39.935 6.324 3.111 7.162 3.262 18.146 3.257 10.166-.005 12.246-.313 17.746-2.626 18.405-7.741 31.103-18.179 40.175-33.025 6.976-11.416 11.212-13.392 17.216-8.028 4.988 4.457 4.473 9.03-2.212 19.644-15.359 24.386-36.057 40.858-60.409 48.075-10.514 3.116-26.341 3.837-35.5 1.616-7.787-1.888-24.469-10.214-31.215-15.58-11.722-9.323-22.677-26.903-26.763-42.949-9.851-38.687 2.646-87.342 30.432-118.483 21.982-24.635 45.292-34.638 69.046-29.628z"
          fill="url(#a)" fill-rule="evenodd"/>
</svg>