<svg width="38" height="56" fill="none" xmlns="http://www.w3.org/2000/svg">
  <path d="M19.334 28a9.333 9.333 0 1118.667 0 9.333 9.333 0 01-18.667 0z" fill="#1ABCFE"/>
  <path d="M.667 46.667A9.333 9.333 0 0110 37.333h9.334v9.334A9.333 9.333 0 0110 56a9.333 9.333 0 01-9.333-9.333z" fill="#0ACF83"/>
  <path d="M19.334 0v18.667h9.333a9.333 9.333 0 100-18.667h-9.333z" fill="#FF7262"/>
  <path d="M.667 9.333A9.333 9.333 0 0010 18.667h9.334V0H10A9.333 9.333 0 00.667 9.333z" fill="#F24E1E"/>
  <path d="M.667 28A9.333 9.333 0 0010 37.333h9.334V18.667H10A9.333 9.333 0 00.667 28z" fill="#A259FF"/>
</svg>
