<svg width="20" height="20" viewBox="0 0 20 20" fill="none" xmlns="http://www.w3.org/2000/svg">
<path d="M19.8117 10.2299C19.8117 9.55013 19.7566 8.8667 19.639 8.198H10.2068V12.0487H15.6082C15.384 13.2906 14.6639 14.3892 13.6093 15.0873V17.5858H16.8318C18.7241 15.8442 19.8117 13.2722 19.8117 10.2299Z" fill="#4285F4"/>
<path d="M10.2065 20C12.9035 20 15.1779 19.1145 16.8351 17.586L13.6126 15.0874C12.7161 15.6974 11.5586 16.0428 10.2101 16.0428C7.60131 16.0428 5.38928 14.2827 4.59561 11.9165H1.27026V14.4922C2.96784 17.8689 6.4255 20 10.2065 20Z" fill="#34A853"/>
<path d="M4.59221 11.9163C4.17333 10.6744 4.17333 9.3296 4.59221 8.08764V5.51196H1.27053C-0.147794 8.3375 -0.147794 11.6664 1.27053 14.492L4.59221 11.9163Z" fill="#FBBC04"/>
<path d="M10.2065 3.95791C11.6321 3.93586 13.01 4.47231 14.0425 5.45702L16.8976 2.60209C15.0898 0.904556 12.6904 -0.0287206 10.2065 0.000673863C6.4255 0.000673863 2.96784 2.13178 1.27026 5.51215L4.59194 8.08783C5.38196 5.71792 7.59763 3.95791 10.2065 3.95791Z" fill="#EA4335"/>
</svg>
