<svg width="778" height="541" fill="none" xmlns="http://www.w3.org/2000/svg">
  <g filter="url(#filter0_d)">
    <path d="M575.141 156.113s-62.432 195.833-67.519 211.999C505.772 351.484 459.988 0 459.988 0 353.622 0 296.739 75.747 266.679 155.651c0 0-75.844 196.295-82.319 212.923-.462-15.242-11.561-210.614-11.561-210.614C166.324 60.043 76.607.462 4 .462L91.868 533c111.453-.462 171.573-75.747 203.021-155.651 0 0 67.057-173.202 69.832-181.053.462 7.389 48.096 336.704 48.096 336.704 111.916 0 172.036-70.666 204.408-147.799L774 .461c-110.529 0-168.799 75.286-198.859 155.652z" fill="#4353FF"/>
  </g>
  <defs>
    <filter id="filter0_d" x="0" y="0" width="778" height="541" filterUnits="userSpaceOnUse" color-interpolation-filters="sRGB">
      <feFlood flood-opacity="0" result="BackgroundImageFix"/>
      <feColorMatrix in="SourceAlpha" values="0 0 0 0 0 0 0 0 0 0 0 0 0 0 0 0 0 0 127 0"/>
      <feOffset dy="4"/>
      <feGaussianBlur stdDeviation="2"/>
      <feColorMatrix values="0 0 0 0 0 0 0 0 0 0 0 0 0 0 0 0 0 0 0.25 0"/>
      <feBlend in2="BackgroundImageFix" result="effect1_dropShadow"/>
      <feBlend in="SourceGraphic" in2="effect1_dropShadow" result="shape"/>
    </filter>
  </defs>
</svg>
