<?xml version="1.0" encoding="UTF-8"?>
<svg xmlns="http://www.w3.org/2000/svg" xmlns:xlink="http://www.w3.org/1999/xlink" width="16px" height="px" viewBox="0 0 16 18" version="1.1">
<g id="surface1">
<path style=" stroke:none;fill-rule:nonzero;fill:rgb(0%,0%,0%);fill-opacity:1;" d="M 5.429688 2.25 L 10.570312 2.25 L 10.570312 0.84375 C 10.570312 0.378906 10.953125 0 11.429688 0 C 11.902344 0 12.285156 0.378906 12.285156 0.84375 L 12.285156 2.25 L 13.714844 2.25 C 14.976562 2.25 16 3.257812 16 4.5 L 16 15.75 C 16 16.992188 14.976562 18 13.714844 18 L 2.285156 18 C 1.023438 18 0 16.992188 0 15.75 L 0 4.5 C 0 3.257812 1.023438 2.25 2.285156 2.25 L 3.714844 2.25 L 3.714844 0.84375 C 3.714844 0.378906 4.097656 0 4.570312 0 C 5.046875 0 5.429688 0.378906 5.429688 0.84375 Z M 1.714844 8.71875 L 4.570312 8.71875 L 4.570312 6.75 L 1.714844 6.75 Z M 1.714844 10.40625 L 1.714844 12.65625 L 4.570312 12.65625 L 4.570312 10.40625 Z M 6.285156 10.40625 L 6.285156 12.65625 L 9.714844 12.65625 L 9.714844 10.40625 Z M 11.429688 10.40625 L 11.429688 12.65625 L 14.285156 12.65625 L 14.285156 10.40625 Z M 14.285156 6.75 L 11.429688 6.75 L 11.429688 8.71875 L 14.285156 8.71875 Z M 14.285156 14.34375 L 11.429688 14.34375 L 11.429688 16.3125 L 13.714844 16.3125 C 14.027344 16.3125 14.285156 16.058594 14.285156 15.75 Z M 9.714844 14.34375 L 6.285156 14.34375 L 6.285156 16.3125 L 9.714844 16.3125 Z M 4.570312 14.34375 L 1.714844 14.34375 L 1.714844 15.75 C 1.714844 16.058594 1.96875 16.3125 2.285156 16.3125 L 4.570312 16.3125 Z M 9.714844 6.75 L 6.285156 6.75 L 6.285156 8.71875 L 9.714844 8.71875 Z M 9.714844 6.75 "/>
</g>
</svg>
