<?xml version="1.0" encoding="UTF-8"?>
<svg xmlns="http://www.w3.org/2000/svg" xmlns:xlink="http://www.w3.org/1999/xlink" width="16px" height="px" viewBox="0 0 16 16" version="1.1">
<g id="surface1">
<path style=" stroke:none;fill-rule:nonzero;fill:rgb(0%,0%,0%);fill-opacity:1;" d="M 8 0 C 3.582031 0 0 3.582031 0 8 C 0 12.417969 3.582031 16 8 16 C 12.417969 16 16 12.417969 16 8 C 16 3.582031 12.417969 0 8 0 Z M 4.21875 7.53125 C 3.925781 7.238281 3.925781 6.761719 4.21875 6.472656 C 4.511719 6.179688 4.988281 6.179688 5.277344 6.472656 L 7.996094 9.191406 L 10.714844 6.472656 C 11.007812 6.179688 11.484375 6.179688 11.773438 6.472656 C 12.066406 6.765625 12.070312 7.242188 11.773438 7.53125 L 8.53125 10.78125 C 8.238281 11.074219 7.761719 11.074219 7.472656 10.78125 Z M 4.21875 7.53125 "/>
</g>
</svg>
