<?xml version="1.0" encoding="UTF-8"?>
<svg xmlns="http://www.w3.org/2000/svg" xmlns:xlink="http://www.w3.org/1999/xlink" width="25px" height="25px" viewBox="0 0 16 21" version="1.1">
<g id="surface1">
<path style=" stroke:none;fill-rule:nonzero;fill:rgb(255%,255%,255%);fill-opacity:1;" d="M 8.988281 20.476562 C 11.125 17.84375 16 11.460938 16 7.875 C 16 3.527344 12.417969 0 8 0 C 3.582031 0 0 3.527344 0 7.875 C 0 11.460938 4.875 17.84375 7.011719 20.476562 C 7.523438 21.101562 8.476562 21.101562 8.988281 20.476562 Z M 8 10.5 C 6.527344 10.5 5.332031 9.324219 5.332031 7.875 C 5.332031 6.425781 6.527344 5.25 8 5.25 C 9.472656 5.25 10.667969 6.425781 10.667969 7.875 C 10.667969 9.324219 9.472656 10.5 8 10.5 Z M 8 10.5 "/>
</g>
</svg>
